<svg xmlns="http://www.w3.org/2000/svg" xmlns:xlink="http://www.w3.org/1999/xlink" width="500" zoomAndPan="magnify" viewBox="0 0 375 374.999991" height="500" preserveAspectRatio="xMidYMid meet" version="1.0"><defs><clipPath id="id1"><path d="M 28.917969 4.929688 L 349.917969 4.929688 L 349.917969 374.867188 L 28.917969 374.867188 Z M 28.917969 4.929688 " clip-rule="nonzero"/></clipPath><clipPath id="id2"><path d="M 28.917969 46 L 349.917969 46 L 349.917969 333.789062 L 28.917969 333.789062 Z M 28.917969 46 " clip-rule="nonzero"/></clipPath><clipPath id="id3"><path d="M 28.917969 4.929688 L 349.917969 4.929688 L 349.917969 374.867188 L 28.917969 374.867188 Z M 28.917969 4.929688 " clip-rule="nonzero"/></clipPath></defs><rect x="-37.5" width="450" fill="rgb(100%, 100%, 100%)" y="-37.499999" height="449.999989" fill-opacity="1"/><rect x="-37.5" width="450" fill="rgb(6.269836%, 6.669617%, 12.548828%)" y="-37.499999" height="449.999989" fill-opacity="1"/><rect x="-37.5" width="450" fill="rgb(100%, 100%, 100%)" y="-37.499999" height="449.999989" fill-opacity="1"/><rect x="-37.5" width="450" fill="rgb(6.269836%, 6.669617%, 12.548828%)" y="-37.499999" height="449.999989" fill-opacity="1"/><g clip-path="url(#id1)"><path fill="rgb(0%, 76.469421%, 83.918762%)" d="M 189.289062 374.867188 L 189.289062 354.328125 L 28.917969 252.03125 L 28.917969 272.566406 Z M 189.289062 230.585938 L 189.289062 251.25 L 252.785156 210.695312 L 236.683594 200.425781 Z M 189.546875 4.929688 L 189.546875 25.46875 L 349.917969 127.765625 L 349.917969 107.226562 Z M 189.546875 149.214844 L 189.546875 128.546875 L 125.917969 169.101562 L 142.148438 179.367188 L 189.546875 149.214844 " fill-opacity="1" fill-rule="nonzero"/></g><g clip-path="url(#id2)"><path fill="rgb(0%, 34.118652%, 100%)" d="M 189.289062 333.65625 L 189.289062 312.992188 L 28.917969 210.695312 L 28.917969 231.363281 Z M 189.289062 292.453125 L 285.121094 231.234375 L 269.015625 220.964844 L 189.289062 271.914062 Z M 189.546875 46.136719 L 189.546875 66.804688 L 349.917969 169.101562 L 349.917969 148.429688 Z M 189.546875 87.339844 L 93.585938 148.5625 L 109.816406 158.828125 L 189.546875 107.878906 L 189.546875 87.339844 " fill-opacity="1" fill-rule="nonzero"/><path fill="rgb(12.159729%, 70.979309%, 100%)" d="M 189.289062 292.453125 L 189.289062 271.789062 L 28.917969 169.492188 L 28.917969 190.15625 Z M 189.289062 333.65625 L 317.585938 251.898438 L 301.351562 241.5 L 189.289062 313.125 Z M 189.546875 87.339844 L 189.546875 108.007812 L 349.917969 210.304688 L 349.917969 189.640625 Z M 189.546875 46.136719 L 61.25 127.898438 L 77.355469 138.296875 L 189.546875 66.671875 L 189.546875 46.136719 " fill-opacity="1" fill-rule="nonzero"/></g><g clip-path="url(#id3)"><path fill="rgb(52.159119%, 98.81897%, 100%)" d="M 189.289062 251.25 L 189.289062 230.585938 L 28.917969 128.285156 L 28.917969 148.953125 Z M 189.289062 374.867188 L 349.917969 272.4375 L 333.683594 262.167969 L 189.289062 354.328125 Z M 189.546875 128.546875 L 189.546875 149.214844 L 349.917969 251.507812 L 349.917969 230.84375 Z M 189.546875 4.929688 L 28.917969 107.359375 L 45.015625 117.625 L 189.546875 25.46875 L 189.546875 4.929688 " fill-opacity="1" fill-rule="nonzero"/></g></svg>