<svg xmlns="http://www.w3.org/2000/svg" xmlns:xlink="http://www.w3.org/1999/xlink" width="500" zoomAndPan="magnify" viewBox="0 0 375 374.999991" height="500" preserveAspectRatio="xMidYMid meet" version="1.0"><defs><g/><clipPath id="id1"><path d="M 0 126.503906 L 114 126.503906 L 114 257.550781 L 0 257.550781 Z M 0 126.503906 " clip-rule="nonzero"/></clipPath><clipPath id="id2"><path d="M 0 126.503906 L 114 126.503906 L 114 257.550781 L 0 257.550781 Z M 0 126.503906 " clip-rule="nonzero"/></clipPath></defs><rect x="-37.5" width="450" fill="rgb(100%, 100%, 100%)" y="-37.499999" height="449.999989" fill-opacity="1"/><rect x="-37.5" width="450" fill="rgb(8.239746%, 9.01947%, 9.799194%)" y="-37.499999" height="449.999989" fill-opacity="1"/><rect x="-37.5" width="450" fill="rgb(100%, 100%, 100%)" y="-37.499999" height="449.999989" fill-opacity="1"/><rect x="-37.5" width="450" fill="rgb(8.239746%, 9.01947%, 9.799194%)" y="-37.499999" height="449.999989" fill-opacity="1"/><g clip-path="url(#id1)"><path fill="rgb(0%, 76.469421%, 83.918762%)" d="M 56.953125 257.550781 L 56.953125 250.273438 L 0 214.035156 L 0 221.3125 Z M 56.953125 206.441406 L 56.953125 213.761719 L 79.503906 199.394531 L 73.785156 195.753906 Z M 57.046875 126.503906 L 57.046875 133.78125 L 114 170.015625 L 114 162.742188 Z M 57.046875 177.613281 L 57.046875 170.292969 L 34.449219 184.660156 L 40.214844 188.296875 L 57.046875 177.613281 " fill-opacity="1" fill-rule="nonzero"/></g><path fill="rgb(0%, 34.118652%, 100%)" d="M 56.953125 242.953125 L 56.953125 235.632812 L 0 199.394531 L 0 206.714844 Z M 56.953125 228.355469 L 90.988281 206.667969 L 85.269531 203.03125 L 56.953125 221.082031 Z M 57.046875 141.101562 L 57.046875 148.421875 L 114 184.660156 L 114 177.335938 Z M 57.046875 155.695312 L 22.964844 177.382812 L 28.730469 181.019531 L 57.046875 162.972656 L 57.046875 155.695312 " fill-opacity="1" fill-rule="nonzero"/><path fill="rgb(12.159729%, 70.979309%, 100%)" d="M 56.953125 228.355469 L 56.953125 221.035156 L 0 184.796875 L 0 192.117188 Z M 56.953125 242.953125 L 102.515625 213.992188 L 96.753906 210.308594 L 56.953125 235.679688 Z M 57.046875 155.695312 L 57.046875 163.019531 L 114 199.253906 L 114 191.933594 Z M 57.046875 141.101562 L 11.480469 170.0625 L 17.203125 173.746094 L 57.046875 148.375 L 57.046875 141.101562 " fill-opacity="1" fill-rule="nonzero"/><g clip-path="url(#id2)"><path fill="rgb(52.159119%, 98.81897%, 100%)" d="M 56.953125 213.761719 L 56.953125 206.441406 L 0 170.199219 L 0 177.523438 Z M 56.953125 257.550781 L 114 221.265625 L 108.234375 217.628906 L 56.953125 250.273438 Z M 57.046875 170.292969 L 57.046875 177.613281 L 114 213.851562 L 114 206.53125 Z M 57.046875 126.503906 L 0 162.789062 L 5.71875 166.425781 L 57.046875 133.78125 L 57.046875 126.503906 " fill-opacity="1" fill-rule="nonzero"/></g><g fill="rgb(100%, 100%, 100%)" fill-opacity="1"><g transform="translate(120.387916, 206.213818)"><g><path d="M 26.578125 -8.390625 C 26.578125 -5.535156 25.519531 -3.351562 23.40625 -1.84375 C 21.289062 -0.34375 18.1875 0.40625 14.09375 0.40625 C 10.363281 0.40625 7.4375 -0.253906 5.3125 -1.578125 C 3.1875 -2.898438 1.820312 -4.898438 1.21875 -7.578125 L 7.109375 -8.5625 C 7.503906 -7.007812 8.28125 -5.882812 9.4375 -5.1875 C 10.601562 -4.5 12.210938 -4.15625 14.265625 -4.15625 C 18.515625 -4.15625 20.640625 -5.453125 20.640625 -8.046875 C 20.640625 -8.867188 20.394531 -9.546875 19.90625 -10.078125 C 19.425781 -10.617188 18.738281 -11.066406 17.84375 -11.421875 C 16.957031 -11.785156 15.253906 -12.222656 12.734375 -12.734375 C 10.554688 -13.242188 9.039062 -13.648438 8.1875 -13.953125 C 7.332031 -14.265625 6.5625 -14.628906 5.875 -15.046875 C 5.1875 -15.472656 4.597656 -15.984375 4.109375 -16.578125 C 3.628906 -17.171875 3.253906 -17.863281 2.984375 -18.65625 C 2.710938 -19.457031 2.578125 -20.375 2.578125 -21.40625 C 2.578125 -24.039062 3.566406 -26.054688 5.546875 -27.453125 C 7.523438 -28.859375 10.398438 -29.5625 14.171875 -29.5625 C 17.785156 -29.5625 20.5 -28.992188 22.3125 -27.859375 C 24.125 -26.734375 25.289062 -24.867188 25.8125 -22.265625 L 19.90625 -21.453125 C 19.601562 -22.703125 18.984375 -23.644531 18.046875 -24.28125 C 17.117188 -24.914062 15.785156 -25.234375 14.046875 -25.234375 C 10.359375 -25.234375 8.515625 -24.078125 8.515625 -21.765625 C 8.515625 -21.003906 8.707031 -20.382812 9.09375 -19.90625 C 9.488281 -19.425781 10.070312 -19.015625 10.84375 -18.671875 C 11.625 -18.335938 13.191406 -17.914062 15.546875 -17.40625 C 18.335938 -16.8125 20.335938 -16.257812 21.546875 -15.75 C 22.753906 -15.25 23.707031 -14.664062 24.40625 -14 C 25.113281 -13.332031 25.648438 -12.53125 26.015625 -11.59375 C 26.390625 -10.664062 26.578125 -9.597656 26.578125 -8.390625 Z M 26.578125 -8.390625 "/></g></g></g><g fill="rgb(100%, 100%, 100%)" fill-opacity="1"><g transform="translate(150.269377, 206.213818)"><g><path d="M 21.625 0 L 21.625 -12.484375 L 8.921875 -12.484375 L 8.921875 0 L 2.828125 0 L 2.828125 -29.125 L 8.921875 -29.125 L 8.921875 -17.53125 L 21.625 -17.53125 L 21.625 -29.125 L 27.71875 -29.125 L 27.71875 0 Z M 21.625 0 "/></g></g></g><g fill="rgb(100%, 100%, 100%)" fill-opacity="1"><g transform="translate(182.486128, 206.213818)"><g><path d="M 23.421875 0 L 20.828125 -7.4375 L 9.734375 -7.4375 L 7.15625 0 L 1.046875 0 L 11.671875 -29.125 L 18.875 -29.125 L 29.453125 0 Z M 15.28125 -24.640625 L 15.15625 -24.1875 C 15.007812 -23.6875 14.835938 -23.117188 14.640625 -22.484375 C 14.453125 -21.847656 13.269531 -18.363281 11.09375 -12.03125 L 19.46875 -12.03125 L 16.59375 -20.40625 L 15.703125 -23.203125 Z M 15.28125 -24.640625 "/></g></g></g><g fill="rgb(100%, 100%, 100%)" fill-opacity="1"><g transform="translate(214.702878, 206.213818)"><g><path d="M 28.796875 -14.78125 C 28.796875 -11.769531 28.203125 -9.144531 27.015625 -6.90625 C 25.835938 -4.675781 24.171875 -2.96875 22.015625 -1.78125 C 19.859375 -0.59375 17.390625 0 14.609375 0 L 2.828125 0 L 2.828125 -29.125 L 13.375 -29.125 C 18.28125 -29.125 22.078125 -27.882812 24.765625 -25.40625 C 27.453125 -22.9375 28.796875 -19.394531 28.796875 -14.78125 Z M 22.65625 -14.78125 C 22.65625 -17.90625 21.84375 -20.289062 20.21875 -21.9375 C 18.59375 -23.582031 16.269531 -24.40625 13.25 -24.40625 L 8.921875 -24.40625 L 8.921875 -4.71875 L 14.09375 -4.71875 C 16.707031 -4.71875 18.785156 -5.617188 20.328125 -7.421875 C 21.878906 -9.222656 22.65625 -11.675781 22.65625 -14.78125 Z M 22.65625 -14.78125 "/></g></g></g><g fill="rgb(100%, 100%, 100%)" fill-opacity="1"><g transform="translate(246.919637, 206.213818)"><g><path d="M 31.140625 -14.6875 C 31.140625 -11.65625 30.539062 -8.988281 29.34375 -6.6875 C 28.144531 -4.394531 26.429688 -2.640625 24.203125 -1.421875 C 21.972656 -0.203125 19.367188 0.40625 16.390625 0.40625 C 11.816406 0.40625 8.226562 -0.9375 5.625 -3.625 C 3.03125 -6.320312 1.734375 -10.007812 1.734375 -14.6875 C 1.734375 -19.363281 3.023438 -23.007812 5.609375 -25.625 C 8.203125 -28.25 11.8125 -29.5625 16.4375 -29.5625 C 21.050781 -29.5625 24.65625 -28.238281 27.25 -25.59375 C 29.84375 -22.945312 31.140625 -19.3125 31.140625 -14.6875 Z M 24.921875 -14.6875 C 24.921875 -17.832031 24.175781 -20.296875 22.6875 -22.078125 C 21.207031 -23.867188 19.125 -24.765625 16.4375 -24.765625 C 13.707031 -24.765625 11.597656 -23.878906 10.109375 -22.109375 C 8.617188 -20.335938 7.875 -17.863281 7.875 -14.6875 C 7.875 -11.5 8.632812 -8.984375 10.15625 -7.140625 C 11.675781 -5.296875 13.753906 -4.375 16.390625 -4.375 C 19.117188 -4.375 21.222656 -5.269531 22.703125 -7.0625 C 24.179688 -8.851562 24.921875 -11.394531 24.921875 -14.6875 Z M 24.921875 -14.6875 "/></g></g></g><g fill="rgb(100%, 100%, 100%)" fill-opacity="1"><g transform="translate(281.492357, 206.213818)"><g><path d="M 32.390625 0 L 25.15625 0 L 21.203125 -16.84375 C 20.722656 -18.832031 20.316406 -20.90625 19.984375 -23.0625 C 19.648438 -21.257812 19.378906 -19.882812 19.171875 -18.9375 C 18.972656 -18 17.507812 -11.6875 14.78125 0 L 7.546875 0 L 0.046875 -29.125 L 6.21875 -29.125 L 10.4375 -10.3125 L 11.390625 -5.765625 C 11.773438 -7.679688 12.148438 -9.507812 12.515625 -11.25 C 12.878906 -13 14.253906 -18.957031 16.640625 -29.125 L 23.453125 -29.125 L 27.140625 -13.625 C 27.429688 -12.46875 27.921875 -9.847656 28.609375 -5.765625 L 29.125 -8.15625 L 30.21875 -12.921875 L 33.734375 -29.125 L 39.90625 -29.125 Z M 32.390625 0 "/></g></g></g><g fill="rgb(100%, 100%, 100%)" fill-opacity="1"><g transform="translate(323.091628, 206.213818)"><g><path d="M 8.921875 -24.40625 L 8.921875 -15.390625 L 23.828125 -15.390625 L 23.828125 -10.6875 L 8.921875 -10.6875 L 8.921875 0 L 2.828125 0 L 2.828125 -29.125 L 24.3125 -29.125 L 24.3125 -24.40625 Z M 8.921875 -24.40625 "/></g></g></g><g fill="rgb(100%, 100%, 100%)" fill-opacity="1"><g transform="translate(350.596463, 206.213818)"><g><path d="M 2.828125 0 L 2.828125 -29.125 L 8.921875 -29.125 L 8.921875 0 Z M 2.828125 0 "/></g></g></g></svg>